<svg xmlns="http://www.w3.org/2000/svg" width="400" height="400" viewBox="0 0 400 400">
  <g fill="none" fill-rule="evenodd">
    <circle cx="81" cy="94" r="50" fill="#999"/>
    <circle cx="319" cy="200" r="50" fill="#999"/>
    <circle cx="89" cy="323" r="50" fill="#999"/>
    <path fill="#D8D8D8" fill-rule="nonzero" d="M271.920051 212.527719C272.543128 216.901843 269.502303 220.952874 265.12818 221.57595 243.723491 224.624963 223.298918 233.522244 203.770005 248.37062 198.73565 252.198381 193.816151 256.379879 189.011485 260.916368L188.281 261.61 165.63 290.069 209.615143 272.186362C213.629381 270.554344 218.195749 272.416992 219.939746 276.350564L220.039053 276.584328C221.703071 280.677276 219.734035 285.34422 215.641087 287.008238L143.366258 316.392105C137.587234 318.74161 131.462212 313.866461 132.455304 307.707641L144.875308 230.682931C145.578657 226.320995 149.684881 223.355125 154.046816 224.058474 158.408752 224.761823 161.374622 228.868047 160.671273 233.229983L153.113 280.102 176.107939 251.21375C176.330592 250.934014 176.571746 250.66952 176.829781 250.422044 182.42079 245.059824 188.172882 240.129966 194.086026 235.634037 215.723958 219.182115 238.680708 209.181776 262.87182 205.735848 267.245944 205.112771 271.296975 208.153596 271.920051 212.527719zM198.431 90.166123C207.322994 94.4921323 218.00824 102.528434 230.712713 114.314067 230.837943 114.43024 230.95942 114.550394 231.076957 114.674344L256.715 141.711 245.131559 95.6665945C244.073964 91.4626706 246.556489 87.1985254 250.697327 86.021049L250.938048 85.9565646C255.222817 84.8786318 259.570145 87.4782857 260.648078 91.7630542L279.682626 167.425122C281.20461 173.474987 275.524136 178.861561 269.563578 177.020627L195.018411 153.997149C190.796893 152.693321 188.431637 148.214144 189.735464 143.992626 191.039292 139.771108 195.518469 137.405852 199.739987 138.709679L245.104 152.72 219.641 125.868 219.219963 125.478573C208.050807 115.17389 198.84744 108.249922 191.812872 104.741741L191.43132 104.553773C176.370787 97.226732 159.00036 93.8077888 139.218501 94.3482846 134.801871 94.4689593 131.123659 90.9863996 131.002984 86.5697699 130.88231 82.1531402 134.364869 78.4749282 138.781499 78.3542535 161.042615 77.7460175 180.959628 81.6661937 198.431 90.166123z"/>
  </g>
</svg>
