<svg xmlns="http://www.w3.org/2000/svg" width="400" height="400" viewBox="0 0 400 400">
  <g fill="none" fill-rule="evenodd">
    <circle cx="81" cy="94" r="50" fill="#999"/>
    <circle cx="319" cy="200" r="50" fill="#999"/>
    <circle cx="89" cy="323" r="50" fill="#999"/>
    <path fill="#D8D8D8" fill-rule="nonzero" d="M269.940038 212.809764C270.407346 216.090357 268.126728 219.12863 264.846135 219.595937 243.093143 222.694565 222.352048 231.729728 202.559508 246.778548 193.455883 253.700288 184.728685 261.761418 176.378502 270.966899L176.565 270.762 159.572 293.502 193.184177 278.627151C196.14392 277.317268 199.593474 278.593178 201.001984 281.476913L201.099087 281.685615C202.440157 284.715828 201.070836 288.259454 198.040623 289.600525L143.482774 313.745993C139.204274 315.639513 134.501113 312.12498 135.104685 307.485294L142.801209 248.321741C143.228684 245.035721 146.239067 242.718412 149.525087 243.145887 152.811107 243.573362 155.128416 246.583744 154.700941 249.869765L149.959 286.32 167.128145 263.344139C167.241859 263.191967 167.362735 263.04528 167.490367 262.904576 176.325905 253.164025 185.594429 244.602883 195.296524 237.22611 216.670828 220.974631 239.311056 211.112174 263.153865 207.715861 266.434458 207.248553 269.472731 209.529172 269.940038 212.809764zM197.55604 91.9645792C208.620178 97.3473503 222.785272 108.800328 240.32916 126.394026 240.383609 126.44863 240.437 126.504278 240.489304 126.560939L260.077 147.78 251.588669 112.01728C250.840817 108.866418 252.727571 105.706105 255.822987 104.849837L256.040889 104.793864C259.265027 104.02862 262.499061 106.021947 263.264305 109.246085L277.042244 167.295468C278.122728 171.847779 273.808534 175.830164 269.357049 174.389586L212.593364 156.019865C209.440636 154.999587 207.711943 151.616697 208.732221 148.463968 209.752499 145.31124 213.13539 143.582547 216.288118 144.602825L251.26 155.92 231.754 134.789 231.19219 134.227056C215.029842 118.083195 202.105663 107.631639 192.676662 102.937617L192.30628 102.755317C176.944393 95.2816647 159.255642 91.8000674 139.163876 92.3490307 135.851403 92.4395367 133.092744 89.827617 133.002238 86.5151447 132.911732 83.2026724 135.523652 80.4440134 138.836124 80.3535074 160.787334 79.7537389 180.386023 83.611261 197.55604 91.9645792z"/>
  </g>
</svg>
